Source:UnKnOwN Thanks
Sample:Never
Encoder:Tony



Format                                   : AVI
Format/Info                              : Audio Video Interleave
File size                                : 727 MiB
Duration                                 : 1h 57mn
Overall bit rate                         : 868 Kbps
Writing library                          : VirtualDub build 32817/release

Video
ID                                       : 0
Format                                   : MPEG-4 Visual
Format profile                           : Advanced Simple@L5
Format settings, BVOP                    : 2
Format settings, QPel                    : No
Format settings, GMC                     : No warppoints
Format settings, Matrix                  : Default (H.263)
Muxing mode                              : Packed bitstream
Codec ID                                 : XVID
Codec ID/Hint                            : XviD
Duration                                 : 1h 57mn
Bit rate                                 : 728 Kbps
Width                                    : 640 pixels
Height                                   : 328 pixels
Display aspect ratio                     : 1.951
Frame rate                               : 29.970 fps
Color space                              : YUV
Chroma subsampling                       : 4:2:0
Bit depth                                : 8 bits
Scan type                                : Progressive
Compression mode                         : Lossy
Bits/(Pixel*Frame)                       : 0.116
Stream size                              : 610 MiB (84%)
Writing library                          : XviD 64

Audio
ID                                       : 1
Format                                   : MPEG Audio
Format version                           : Version 1
Format profile                           : Layer 3
Codec ID                                 : 55
Codec ID/Hint                            : MP3
Duration                                 : 1h 57mn
Bit rate mode                            : Constant
Bit rate                                 : 128 Kbps
Channel(s)                               : 2 channels
Sampling rate                            : 48.0 KHz
Compression mode                         : Lossy
Stream size                              : 107 MiB (15%)
Alignment                                : Split accross interleaves
Interleave, duration                     : 33 ms (1.00 video frame)
Interleave, preload duration             : 500 ms

Screens: 
http://i.imgur.com/oOjmdfB.png 
http://i.imgur.com/NXoA9ee.png 
http://i.imgur.com/VFxmQQC.png 
http://i.imgur.com/jvfT4cq.png
